<svg width="40" height="40" viewBox="0 0 40 40" fill="none" xmlns="http://www.w3.org/2000/svg">
<path d="M0 20C0 8.95431 8.95431 0 20 0C31.0457 0 40 8.95431 40 20C40 31.0457 31.0457 40 20 40C8.95431 40 0 31.0457 0 20Z" fill="white"/>
<path fill-rule="evenodd" clip-rule="evenodd" d="M32.3401 20.2955C32.3401 19.3736 32.2574 18.4873 32.1037 17.6364H19.8601V22.665H26.8565C26.5551 24.29 25.6392 25.6668 24.2624 26.5886V29.8505H28.4637C30.9219 27.5873 32.3401 24.2545 32.3401 20.2955Z" fill="#4285F4"/>
<path fill-rule="evenodd" clip-rule="evenodd" d="M19.8602 33C23.3702 33 26.3129 31.8359 28.4638 29.8504L24.2625 26.5886C23.0984 27.3686 21.6093 27.8295 19.8602 27.8295C16.4743 27.8295 13.6084 25.5427 12.5861 22.47H8.24292V25.8382C10.382 30.0868 14.7784 33 19.8602 33Z" fill="#34A853"/>
<path fill-rule="evenodd" clip-rule="evenodd" d="M12.586 22.47C12.326 21.69 12.1783 20.8568 12.1783 20C12.1783 19.1432 12.326 18.31 12.586 17.53V14.1618H8.24283C7.36238 15.9168 6.86011 17.9023 6.86011 20C6.86011 22.0977 7.36238 24.0832 8.24283 25.8382L12.586 22.47Z" fill="#FBBC05"/>
<path fill-rule="evenodd" clip-rule="evenodd" d="M19.8602 12.1705C21.7688 12.1705 23.4825 12.8264 24.8297 14.1145L28.5584 10.3859C26.307 8.28818 23.3643 7 19.8602 7C14.7784 7 10.382 9.91318 8.24292 14.1618L12.5861 17.53C13.6084 14.4573 16.4743 12.1705 19.8602 12.1705Z" fill="#EA4335"/>
</svg>
